HIERARCHY
ROOT Hips
{
	OFFSET 0.00000 0.00000 0.00000
	CHANNELS 6 Xposition Yposition Zposition Zrotation Yrotation Xrotation 
	JOINT LHipJoint
	{
		OFFSET 0 0 0
		CHANNELS 3 Zrotation Yrotation Xrotation
		JOINT LeftHip
		{
			OFFSET 1.81638 -1.86202 0.89635
			CHANNELS 3 Zrotation Yrotation Xrotation
			JOINT LeftKnee
			{
				OFFSET 2.63464 -7.23861 0.00000
				CHANNELS 3 Zrotation Yrotation Xrotation
				JOINT LeftAnkle
				{
					OFFSET 2.45871 -6.75336 0.00000
					CHANNELS 3 Zrotation Yrotation Xrotation
					JOINT LeftToe
					{
						OFFSET 0.34235 -0.94059 2.20020
						CHANNELS 3 Zrotation Yrotation Xrotation
						End Site
						{
							OFFSET 0.00000 -0.00000 1.18611
						}
					}
				}
			}
		}
	}
	JOINT RHipJoint
	{
		OFFSET 0 0 0
		CHANNELS 3 Zrotation Yrotation Xrotation
		JOINT RightHip
		{
			OFFSET -1.84405 -1.86203 0.89635
			CHANNELS 3 Zrotation Yrotation Xrotation
			JOINT RightKnee
			{
				OFFSET -2.71067 -7.44751 0.00000
				CHANNELS 3 Zrotation Yrotation Xrotation
				JOINT RightAnkle
				{
					OFFSET -2.47159 -6.79060 0.00000
					CHANNELS 3 Zrotation Yrotation Xrotation
					JOINT RightToe
					{
						OFFSET -0.26223 -0.72048 2.36007
						CHANNELS 3 Zrotation Yrotation Xrotation
						End Site
						{
							OFFSET -0.00000 -0.00000 1.23343
						}
					}
				}
			}
		}
	}
	JOINT lowerback
	{
		OFFSET 0 0 0
		CHANNELS 3 Zrotation Yrotation Xrotation
		JOINT Chest
		{
			OFFSET 0.02089 1.99248 -0.22512
			CHANNELS 3 Zrotation Yrotation Xrotation
			JOINT Chest2
			{
				OFFSET 0.01476 2.01356 -0.03079
				CHANNELS 3 Zrotation Yrotation Xrotation
				JOINT lowerneck
				{
					OFFSET 0 0 0
					CHANNELS 3 Zrotation Yrotation Xrotation
					JOINT Neck
					{
						OFFSET 0.04846 1.65098 0.06663
						CHANNELS 3 Zrotation Yrotation Xrotation
						JOINT Head
						{
							OFFSET -0.06061 1.60634 -0.07565
							CHANNELS 3 Zrotation Yrotation Xrotation
							End Site
							{
								OFFSET -0.02954 1.73562 -0.03642
							}
						}
					}
				}
				JOINT LeftCollar
				{
					OFFSET 0 0 0
					CHANNELS 3 Zrotation Yrotation Xrotation
					JOINT LeftShoulder
					{
						OFFSET 3.45234 1.47051 -0.06993
CHANNELS 3 Zrotation Xrotation Yrotation
						JOINT LeftElbow
						{
OFFSET 0 -5.493130 0.000000
CHANNELS 3 Zrotation Xrotation Yrotation
							JOINT LeftWrist
							{
OFFSET 0 -3.290370 0.000000
CHANNELS 3 Zrotation Xrotation Yrotation
								JOINT lhand
								{
									OFFSET 0 0 0
CHANNELS 3 Zrotation Xrotation Yrotation
									JOINT LFingers
									{
OFFSET 0 -0.729660 0.000000
CHANNELS 3 Zrotation Xrotation Yrotation
										End Site
										{
OFFSET 0 -0.588270 0.000000
										}
									}
								}
								JOINT LThumb
								{
OFFSET 0 0.000000 0.000000
CHANNELS 3 Zrotation Xrotation Yrotation
									End Site
									{
OFFSET 0 -0.597250 0.597250
									}
								}
							}
						}
					}
				}
				JOINT RightCollar
				{
					OFFSET 0 0 0
					CHANNELS 3 Zrotation Yrotation Xrotation
					JOINT RightShoulder
					{
						OFFSET -3.41935 1.44327 0.20453
CHANNELS 3 Zrotation Xrotation Yrotation
						JOINT RightElbow
						{
OFFSET 0 -5.236840 0.000000
CHANNELS 3 Zrotation Xrotation Yrotation
							JOINT RightWrist
							{
OFFSET 0 -3.382510 0.000000
CHANNELS 3 Zrotation Xrotation Yrotation
								JOINT rhand
								{
									OFFSET 0 0 0
CHANNELS 3 Zrotation Xrotation Yrotation
									JOINT RFingers
									{
OFFSET 0 -0.691450 0.000000
CHANNELS 3 Zrotation Xrotation Yrotation
										End Site
										{
OFFSET 0 -0.557470 0.000000
										}
									}
								}
								JOINT RThumb
								{
OFFSET 0 0.000000 0.000000
CHANNELS 3 Zrotation Xrotation Yrotation
									End Site
									{
OFFSET 0 -0.565980 0.565980
									}
								}
							}
						}
					}
				}
			}
		}
	}
}
MOTION
Frames: 6
Frame Time: 0.008333333333333333
-19.144664 16.990493 1.708514 -0.728089 42.962393 4.566527 0.000000 0.000000 0.000000 -12.609267 -8.736833 -21.938076 5.520772 13.947139 43.026346 1.276351 -22.511502 -24.052871 0.000983 -0.201982 -0.554996 0.000000 0.000000 0.000000 18.216517 19.300350 -19.815432 -12.142506 -18.449989 66.439394 1.498787 23.840304 -3.111465 -0.204598 2.904721 -8.014124 -8.870586 -1.615262 22.722889 -3.489085 -4.187750 5.394574 2.367559 -1.831505 -6.328367 0.998557 0.397214 0.723750 4.771196 1.665778 -19.658996 1.245460 0.501948 -6.097410 0.000000 0.000000 0.000000 23.569917 -1.789376 -32.585395 31.819680 -42.401865 12.619432 5.204488 2.369279 -9.433344 0.000000 0.000000 0.000000 -7.125000 0.000000 0.000000 -18.667277 38.775555 -2.987057 0.000000 0.000000 0.000000 -10.079997 20.068980 43.908617 -27.359578 -38.519906 -9.722207 -8.689054 -3.196583 14.661596 0.000000 0.000000 0.000000 7.125000 0.000000 0.000000 17.241975 44.098145 0.396445
-19.089243 17.005011 1.764453 -0.811481 43.000710 4.525814 0.000000 0.000000 0.000000 -12.619221 -8.659211 -21.527339 5.462996 13.886788 42.786137 1.302907 -22.525425 -24.210157 0.000766 -0.174290 -0.478803 0.000000 0.000000 0.000000 18.152697 19.312634 -20.489307 -11.989223 -18.385779 65.954175 1.336282 23.333190 -4.336027 -0.252250 3.229140 -8.917573 -8.911236 -1.682483 22.776924 -3.451182 -4.289074 5.377687 2.460626 -1.877983 -6.358588 1.037088 0.500916 0.806551 4.700323 1.807848 -19.767231 1.208832 0.570513 -6.148480 0.000000 0.000000 0.000000 23.664890 -2.476055 -32.395312 32.256342 -42.749835 12.914711 5.864730 2.019583 -9.577163 0.000000 0.000000 0.000000 -7.125000 0.000000 0.000000 -18.158299 38.963354 -2.810858 0.000000 0.000000 0.000000 -10.071578 20.130636 43.713697 -27.313227 -38.476194 -9.693392 -8.998081 -3.003185 14.762096 0.000000 0.000000 0.000000 7.125000 0.000000 0.000000 17.002130 44.229234 0.333755
-19.034005 17.021418 1.821488 -0.885001 43.036650 4.490889 0.000000 0.000000 0.000000 -12.637034 -8.577018 -21.087231 5.393460 13.813580 42.495961 1.326112 -22.524175 -24.341728 0.000609 -0.155617 -0.427471 0.000000 0.000000 0.000000 18.080896 19.359591 -21.108646 -11.798038 -18.303899 65.347025 1.168536 22.777449 -5.512512 -0.296550 3.501033 -9.677155 -8.943660 -1.751472 22.829740 -3.416571 -4.391190 5.358545 2.545710 -1.924705 -6.391246 1.087013 0.609126 0.895385 4.620005 1.955279 -19.872785 1.166720 0.641456 -6.199734 0.000000 0.000000 0.000000 23.781616 -3.136959 -32.246786 32.718169 -43.112125 13.229185 6.509617 1.632839 -9.734204 0.000000 0.000000 0.000000 -7.125000 0.000000 0.000000 -17.663031 39.163524 -2.637096 0.000000 0.000000 0.000000 -10.056030 20.197594 43.526028 -27.267911 -38.433457 -9.665187 -9.340135 -2.806375 14.850227 0.000000 0.000000 0.000000 7.125000 0.000000 0.000000 16.728284 44.352524 0.275392
-18.979722 17.028864 1.878743 -0.935751 43.071341 4.475211 0.000000 0.000000 0.000000 -12.664764 -8.502831 -20.648593 5.317754 13.732733 42.177652 1.344395 -22.506838 -24.437600 0.000527 -0.150019 -0.412133 0.000000 0.000000 0.000000 17.975745 19.458554 -21.706975 -11.576370 -18.205270 64.638947 1.007402 22.221783 -6.593651 -0.336369 3.725033 -10.304737 -8.966535 -1.822298 22.871317 -3.391068 -4.493160 5.338595 2.615221 -1.971647 -6.420305 1.150307 0.722111 0.982309 4.528669 2.108073 -19.971728 1.118217 0.714969 -6.248269 0.000000 0.000000 0.000000 23.934116 -3.771565 -32.151589 33.211510 -43.490942 13.567826 7.100367 1.224718 -9.902485 0.000000 0.000000 0.000000 -7.125000 0.000000 0.000000 -17.213160 39.371774 -2.474059 0.000000 0.000000 0.000000 -10.027774 20.268739 43.347468 -27.223183 -38.391234 -9.637423 -9.699158 -2.612797 14.928221 0.000000 0.000000 0.000000 7.125000 0.000000 0.000000 16.435119 44.468615 0.222024
-18.925241 17.044819 1.937921 -0.970194 43.102084 4.475304 0.000000 0.000000 0.000000 -12.708240 -8.421520 -20.170585 5.228294 13.636026 41.799260 1.360198 -22.474033 -24.512990 0.000552 -0.154745 -0.425136 0.000000 0.000000 0.000000 17.854802 19.584298 -22.237319 -11.314020 -18.084271 63.795791 0.857056 21.693358 -7.583813 -0.372034 3.916117 -10.841123 -8.985501 -1.892466 22.905576 -3.369858 -4.593211 5.315499 2.677241 -2.017675 -6.449857 1.224408 0.837824 1.067822 4.428017 2.263427 -20.064833 1.064510 0.789780 -6.294362 0.000000 0.000000 0.000000 24.109578 -4.380872 -32.093266 33.732442 -43.883965 13.927814 7.634538 0.808480 -10.072667 0.000000 0.000000 0.000000 -7.125000 0.000000 0.000000 -16.809303 39.578371 -2.323466 0.000000 0.000000 0.000000 -9.994686 20.344276 43.179443 -27.177564 -38.348012 -9.609120 -10.054720 -2.424222 14.998709 0.000000 0.000000 0.000000 7.125000 0.000000 0.000000 16.141962 44.577335 0.173358
-18.870658 17.065980 1.998706 -0.990128 43.127270 4.490282 0.000000 0.000000 0.000000 -12.763773 -8.334883 -19.663088 5.127740 13.525883 41.371053 1.374144 -22.425476 -24.571284 0.000689 -0.170120 -0.467413 0.000000 0.000000 0.000000 17.715711 19.740751 -22.710695 -11.016313 -17.941820 62.832885 0.720843 21.210418 -8.472098 -0.404370 4.081639 -11.306617 -9.001103 -1.961167 22.932129 -3.351749 -4.690378 5.288848 2.733064 -2.062274 -6.480108 1.309249 0.954874 1.153563 4.316364 2.419268 -20.154260 1.005244 0.864909 -6.338901 0.000000 0.000000 0.000000 24.305163 -4.959211 -32.067473 34.285588 -44.293683 14.312675 8.100955 0.389181 -10.237606 0.000000 0.000000 0.000000 -7.125000 0.000000 0.000000 -16.459462 39.775325 -2.188939 0.000000 0.000000 0.000000 -9.960419 20.424880 43.025665 -27.132537 -38.305269 -9.581178 -10.395793 -2.242247 15.067063 0.000000 0.000000 0.000000 7.125000 0.000000 0.000000 15.860289 44.682736 0.127751
